<svg width="55" height="27" viewBox="0 0 55 27" fill="none" xmlns="http://www.w3.org/2000/svg">
<path d="M5.352 11.312H8.776V14H1.8V2.672H5.352V11.312Z" fill="#00D3FF"/>
<path d="M11.6858 4.256C11.0671 4.256 10.5711 4.09067 10.1978 3.76C9.82442 3.42933 9.63775 3.01333 9.63775 2.512C9.63775 2 9.82442 1.57867 10.1978 1.248C10.5711 0.906667 11.0671 0.736 11.6858 0.736C12.2937 0.736 12.7844 0.906667 13.1578 1.248C13.5311 1.57867 13.7177 2 13.7177 2.512C13.7177 3.01333 13.5311 3.42933 13.1578 3.76C12.7844 4.09067 12.2937 4.256 11.6858 4.256ZM13.4458 4.976V14H9.89375V4.976H13.4458Z" fill="#00D3FF"/>
<path d="M21.37 4.912C22.4047 4.912 23.21 5.25867 23.786 5.952C24.3727 6.64533 24.666 7.584 24.666 8.768V14H21.13V9.216C21.13 8.78933 21.0127 8.45333 20.778 8.208C20.554 7.952 20.25 7.824 19.866 7.824C19.4713 7.824 19.162 7.952 18.938 8.208C18.714 8.45333 18.602 8.78933 18.602 9.216V14H15.05V4.976H18.602V6.352C18.8793 5.92533 19.2473 5.57867 19.706 5.312C20.1753 5.04533 20.73 4.912 21.37 4.912Z" fill="#00D3FF"/>
<path d="M31.9823 14L29.7582 10.4V14H26.2062V2.16H29.7582V8.352L32.0142 4.976H36.1423L32.7663 9.52L36.2223 14H31.9823Z" fill="#00D3FF"/>
<path d="M45.7547 9.408C45.7547 9.65333 45.7388 9.888 45.7067 10.112H39.9948C40.0481 10.8907 40.3734 11.28 40.9707 11.28C41.3547 11.28 41.6321 11.104 41.8027 10.752H45.5628C45.4347 11.392 45.1628 11.968 44.7467 12.48C44.3414 12.9813 43.8241 13.3813 43.1948 13.68C42.5761 13.968 41.8934 14.112 41.1468 14.112C40.2508 14.112 39.4507 13.9253 38.7467 13.552C38.0534 13.1787 37.5094 12.6453 37.1147 11.952C36.7308 11.248 36.5387 10.4267 36.5387 9.488C36.5387 8.54933 36.7308 7.73333 37.1147 7.04C37.5094 6.336 38.0534 5.79733 38.7467 5.424C39.4507 5.05067 40.2508 4.864 41.1468 4.864C42.0428 4.864 42.8374 5.05067 43.5308 5.424C44.2347 5.78667 44.7788 6.30933 45.1628 6.992C45.5574 7.67467 45.7547 8.48 45.7547 9.408ZM42.1548 8.56C42.1548 8.26133 42.0588 8.03733 41.8667 7.888C41.6747 7.728 41.4347 7.648 41.1468 7.648C40.5174 7.648 40.1494 7.952 40.0428 8.56H42.1548Z" fill="#00D3FF"/>
<path d="M10.0085 14.672V17.488H7.0005V26H3.4485V17.488H0.4725V14.672H10.0085Z" fill="#FF00A4"/>
<path d="M12.7639 16.256C12.1452 16.256 11.6492 16.0907 11.2759 15.76C10.9025 15.4293 10.7159 15.0133 10.7159 14.512C10.7159 14 10.9025 13.5787 11.2759 13.248C11.6492 12.9067 12.1452 12.736 12.7639 12.736C13.3719 12.736 13.8625 12.9067 14.2359 13.248C14.6092 13.5787 14.7959 14 14.7959 14.512C14.7959 15.0133 14.6092 15.4293 14.2359 15.76C13.8625 16.0907 13.3719 16.256 12.7639 16.256ZM14.5239 16.976V26H10.9719V16.976H14.5239Z" fill="#FF00A4"/>
<path d="M22.4481 16.912C23.4828 16.912 24.2881 17.2587 24.8641 17.952C25.4508 18.6453 25.7441 19.584 25.7441 20.768V26H22.2081V21.216C22.2081 20.7893 22.0908 20.4533 21.8561 20.208C21.6321 19.952 21.3281 19.824 20.9441 19.824C20.5495 19.824 20.2401 19.952 20.0161 20.208C19.7921 20.4533 19.6801 20.7893 19.6801 21.216V26H16.1281V16.976H19.6801V18.352C19.9575 17.9253 20.3255 17.5787 20.7841 17.312C21.2535 17.0453 21.8081 16.912 22.4481 16.912Z" fill="#FF00A4"/>
<path d="M26.8044 21.488C26.8044 20.5387 26.9644 19.7173 27.2844 19.024C27.615 18.32 28.063 17.7867 28.6284 17.424C29.1937 17.0507 29.8284 16.864 30.5324 16.864C31.119 16.864 31.6204 16.9867 32.0364 17.232C32.463 17.4667 32.7884 17.792 33.0124 18.208V14.16H36.5644V26H33.0124V24.768C32.7884 25.184 32.463 25.5147 32.0364 25.76C31.6204 25.9947 31.119 26.112 30.5324 26.112C29.8284 26.112 29.1937 25.9307 28.6284 25.568C28.063 25.1947 27.615 24.6613 27.2844 23.968C26.9644 23.264 26.8044 22.4373 26.8044 21.488ZM33.0284 21.488C33.0284 21.008 32.9057 20.6347 32.6604 20.368C32.415 20.1013 32.1004 19.968 31.7164 19.968C31.3324 19.968 31.0177 20.1013 30.7724 20.368C30.527 20.6347 30.4044 21.008 30.4044 21.488C30.4044 21.968 30.527 22.3413 30.7724 22.608C31.0177 22.8747 31.3324 23.008 31.7164 23.008C32.1004 23.008 32.415 22.8747 32.6604 22.608C32.9057 22.3413 33.0284 21.968 33.0284 21.488Z" fill="#FF00A4"/>
<path d="M46.8954 21.408C46.8954 21.6533 46.8794 21.888 46.8474 22.112H41.1354C41.1887 22.8907 41.514 23.28 42.1114 23.28C42.4954 23.28 42.7727 23.104 42.9434 22.752H46.7034C46.5754 23.392 46.3034 23.968 45.8874 24.48C45.482 24.9813 44.9647 25.3813 44.3354 25.68C43.7167 25.968 43.034 26.112 42.2874 26.112C41.3914 26.112 40.5914 25.9253 39.8874 25.552C39.194 25.1787 38.65 24.6453 38.2554 23.952C37.8714 23.248 37.6794 22.4267 37.6794 21.488C37.6794 20.5493 37.8714 19.7333 38.2554 19.04C38.65 18.336 39.194 17.7973 39.8874 17.424C40.5914 17.0507 41.3914 16.864 42.2874 16.864C43.1834 16.864 43.978 17.0507 44.6714 17.424C45.3754 17.7867 45.9194 18.3093 46.3034 18.992C46.698 19.6747 46.8954 20.48 46.8954 21.408ZM43.2954 20.56C43.2954 20.2613 43.1994 20.0373 43.0074 19.888C42.8154 19.728 42.5754 19.648 42.2874 19.648C41.658 19.648 41.29 19.952 41.1834 20.56H43.2954Z" fill="#FF00A4"/>
<path d="M51.5708 18.64C51.9334 18.1173 52.3761 17.7013 52.8988 17.392C53.4214 17.072 53.9654 16.912 54.5308 16.912V20.704H53.5228C52.8507 20.704 52.3548 20.8213 52.0348 21.056C51.7254 21.2907 51.5708 21.7067 51.5708 22.304V26H48.0187V16.976H51.5708V18.64Z" fill="#FF00A4"/>
</svg>
